HIERARCHY
ROOT Hips
{
	OFFSET	0.00	0.00	0.00
	CHANNELS 6 Xposition Yposition Zposition Zrotation Xrotation Yrotation
	JOINT LeftUpLeg
	{
		OFFSET	 0.126116	-0.014019	-0.065224
		CHANNELS 3 Zrotation Xrotation Yrotation
		JOINT LeftLeg
		{
			OFFSET	 0.000000	 0.000000	 0.569914
			CHANNELS 3 Zrotation Xrotation Yrotation
			JOINT LeftFoot
			{
				OFFSET	 0.000000	 0.000000	 0.544423
				CHANNELS 3 Zrotation Xrotation Yrotation
				JOINT LeftToeBase
				{
					OFFSET	 0.000000	 0.000000	 0.207117
					CHANNELS 3 Zrotation Xrotation Yrotation
					End Site
					{
						OFFSET	 0.000000	 0.000000	 0.207117
					}
				}
			}
		}
	}
	JOINT RightUpLeg
	{
		OFFSET	-0.124023	-0.008373	-0.065224
		CHANNELS 3 Zrotation Xrotation Yrotation
		JOINT RightLeg
		{
			OFFSET	 0.000000	 0.000000	 0.570047
			CHANNELS 3 Zrotation Xrotation Yrotation
			JOINT RightFoot
			{
				OFFSET	 0.000000	 0.000000	 0.544354
				CHANNELS 3 Zrotation Xrotation Yrotation
				JOINT RightToeBase
				{
					OFFSET	 0.000000	 0.000000	 0.207540
					CHANNELS 3 Zrotation Xrotation Yrotation
					End Site
					{
						OFFSET	 0.000000	 0.000000	 0.207540
					}
				}
			}
		}
	}
	JOINT Spine
	{
		OFFSET	 0.000184	-0.007763	 0.117403
		CHANNELS 3 Zrotation Xrotation Yrotation
		JOINT Spine1
		{
			OFFSET	 0.000000	 0.000000	 0.137269
			CHANNELS 3 Zrotation Xrotation Yrotation
			JOINT Spine2
			{
				OFFSET	 0.000000	 0.000000	 0.156879
				CHANNELS 3 Zrotation Xrotation Yrotation
				JOINT LeftShoulder
				{
					OFFSET	 0.080501	-0.002496	 0.160144
					CHANNELS 3 Zrotation Xrotation Yrotation
					JOINT LeftArm
					{
						OFFSET	 0.000000	 0.000000	 0.164363
						CHANNELS 3 Zrotation Xrotation Yrotation
						JOINT LeftForeArm
						{
							OFFSET	 0.000000	 0.000000	 0.364576
							CHANNELS 3 Zrotation Xrotation Yrotation
							JOINT LeftHand
							{
								OFFSET	 0.000000	 0.000000	 0.360812
								CHANNELS 3 Zrotation Xrotation Yrotation
								JOINT LeftHandIndex1
								{
									OFFSET	 0.000000	 0.000000	 0.086006
									CHANNELS 3 Zrotation Xrotation Yrotation
									JOINT LeftHandIndex2
									{
										OFFSET	 0.000000	 0.000000	 0.047236
										CHANNELS 3 Zrotation Xrotation Yrotation
										JOINT LeftHandIndex3
										{
											OFFSET	-0.004284	-0.000551	 0.038166
											CHANNELS 3 Zrotation Xrotation Yrotation
											End Site
											{
												OFFSET	-0.004284	-0.000551	 0.038166
											}
										}
									}
								}
							}
						}
					}
				}
				JOINT Neck
				{
					OFFSET	 0.000000	 0.000000	 0.176489
					CHANNELS 3 Zrotation Xrotation Yrotation
					JOINT Head
					{
						OFFSET	 0.000000	-0.001747	 0.077940
						CHANNELS 3 Zrotation Xrotation Yrotation
						End Site
						{
							OFFSET	 0.000000	-0.001747	 0.077940
						}
					}
				}
				JOINT RightShoulder
				{
					OFFSET	-0.080363	 0.000306	 0.159706
					CHANNELS 3 Zrotation Xrotation Yrotation
					JOINT RightArm
					{
						OFFSET	 0.000000	 0.000000	 0.164196
						CHANNELS 3 Zrotation Xrotation Yrotation
						JOINT RightForeArm
						{
							OFFSET	 0.000000	 0.000000	 0.365611
							CHANNELS 3 Zrotation Xrotation Yrotation
							JOINT RightHand
							{
								OFFSET	 0.000000	 0.000000	 0.360648
								CHANNELS 3 Zrotation Xrotation Yrotation
								JOINT RightHandIndex1
								{
									OFFSET	 0.000000	 0.000000	 0.069977
									CHANNELS 3 Zrotation Xrotation Yrotation
									JOINT RightHandIndex2
									{
										OFFSET	 0.000000	 0.000000	 0.052305
										CHANNELS 3 Zrotation Xrotation Yrotation
										JOINT RightHandIndex3
										{
											OFFSET	 0.009002	-0.000782	 0.042196
											CHANNELS 3 Zrotation Xrotation Yrotation
											End Site
											{
												OFFSET	 0.009002	-0.000782	 0.042196
											}
										}
									}
								}
							}
						}
					}
				}
			}
		}
	}
}
MOTION
Frames:    11
Frame Time: 0.03333334
-0.000490	 0.019743	 1.271210	 0.004069	 0.007442	-0.096300	-2.085392	-1.397713	 178.167900	 1.480672	-11.345810	-0.661388	-6.784990	 70.891560	 0.646037	-2.385833	 28.452760	 0.000004	 1.969194	-2.060901	-178.002800	-1.456392	-12.239320	 0.701893	 6.713777	 71.194950	-0.730613	 2.384658	 28.388730	 0.000004	 2.054354	 2.723135	-0.015783	 1.154229	 3.668516	 0.470795	-3.467321	-4.626472	-0.767502	-91.776210	 78.527450	-180.000000	 56.355580	 39.043640	-62.366700	-8.306739	 0.189030	-0.544157	-30.282880	-10.707420	-4.442747	-2.635965	 4.993658	 6.788941	-5.165319	 0.784187	 3.516649	-5.225038	 0.466231	 0.424329	-0.000002	-3.783157	-0.089647	-3.360157	 4.942302	 0.145039	 89.782100	 78.203900	 180.000000	-63.258310	 41.545560	 54.167050	 7.754672	 5.260145	 12.054000	 30.519060	-11.439110	 9.103061	 6.112037	 4.509576	-0.364401	 4.968462	 1.518543	-9.347576	 5.168945	 0.703820	 2.021906
-0.000484	 0.019762	 1.271116	 0.004068	 0.007453	-0.096264	-1.724925	-1.529974	 178.150800	 1.477795	-11.587150	-0.675844	-6.850917	 70.996450	 0.716374	-2.385833	 28.452760	 0.000004	 1.608913	-2.185999	-177.986400	-1.453557	-12.463420	 0.715154	 6.771395	 71.292520	-0.791878	 2.384658	 28.388730	 0.000004	 0.928700	 2.723126	-0.015822	 1.154231	 3.668502	 0.470782	-3.467321	-4.626464	-0.767491	-91.776220	 78.527470	-180.000000	 56.224450	 38.997230	-62.160190	-9.135592	 0.204961	-1.001543	-30.890070	-11.880720	-4.568766	-2.635965	 4.993658	 6.788941	-5.165319	 0.784187	 3.516649	-5.225038	 0.466231	 0.424329	-0.000002	-3.783157	-0.089647	-3.360157	 4.942302	 0.145039	 89.782120	 78.203890	 180.000000	-62.542730	 40.730720	 55.845560	 7.556991	 5.132812	 12.290790	 31.184900	-13.206130	 8.908772	 6.112037	 4.509576	-0.364401	 4.968462	 1.518543	-9.347576	 5.168945	 0.703820	 2.021906
-0.000481	 0.019770	 1.271103	 0.004070	 0.007449	-0.096264	-1.600513	-1.575065	 178.144900	 1.476805	-11.669210	-0.680765	-6.873433	 71.032030	 0.740393	-2.385833	 28.452760	 0.000004	 1.484573	-2.228662	-177.980700	-1.452577	-12.539630	 0.719672	 6.791060	 71.325610	-0.812776	 2.384658	 28.388730	 0.000004	 0.493421	 2.723130	-0.015823	 1.154229	 3.668512	 0.470798	-3.467321	-4.626471	-0.767502	-91.776220	 78.527470	-180.000000	 56.163030	 38.979310	-62.064840	-9.454241	 0.214688	-1.178586	-31.126520	-12.331700	-4.623913	-2.635965	 4.993658	 6.788941	-5.165319	 0.784187	 3.516649	-5.225038	 0.466231	 0.424329	-0.000002	-3.783157	-0.089647	-3.360157	 4.942302	 0.145039	 89.782120	 78.203900	 180.000000	-62.145530	 40.242310	 56.650390	 7.386296	 5.131955	 12.545400	 31.520450	-13.980080	 8.795094	 6.112037	 4.509576	-0.364401	 4.968462	 1.518543	-9.347576	 5.168945	 0.703820	 2.021906
-0.000478	 0.019779	 1.271092	 0.004070	 0.007449	-0.096264	-1.473770	-1.620788	 178.138800	 1.475791	-11.752360	-0.685756	-6.896295	 71.068040	 0.764784	-2.385833	 28.452760	 0.000004	 1.357928	-2.272057	-177.974800	-1.451579	-12.617110	 0.724263	 6.811113	 71.359250	-0.834066	 2.384658	 28.388730	 0.000004	 0.028828	 2.723129	-0.015823	 1.154229	 3.668506	 0.470786	-3.467321	-4.626465	-0.767494	-91.776190	 78.527490	 180.000000	 56.091090	 38.957670	-61.953380	-9.793643	 0.226405	-1.365792	-31.380070	-12.810430	-4.686767	-2.635965	 4.993658	 6.788941	-5.165319	 0.784187	 3.516649	-5.225038	 0.466231	 0.424329	-0.000002	-3.783157	-0.089647	-3.360157	 4.942302	 0.145039	 89.782100	 78.203870	 180.000000	-61.498300	 39.615670	 57.232510	 7.080381	 5.388730	 13.467480	 31.884690	-14.817350	 8.675503	 6.112037	 4.509576	-0.364401	 4.968462	 1.518543	-9.347576	 5.168945	 0.703820	 2.021906
-0.000473	 0.019804	 1.271066	 0.004065	 0.007449	-0.096259	-1.238354	-1.704837	 178.127500	 1.473914	-11.904870	-0.694914	-6.938432	 71.133960	 0.809687	-2.385833	 28.452760	 0.000004	 1.122640	-2.351965	-177.964000	-1.449724	-12.759460	 0.732711	 6.848004	 71.420930	-0.873253	 2.384658	 28.388730	 0.000004	-0.886570	 2.723125	-0.015825	 1.154231	 3.668515	 0.470774	-3.467325	-4.626470	-0.767489	-91.776160	 78.527450	 180.000000	 55.927760	 38.904150	-61.694880	-10.464330	 0.259265	-1.742166	-31.883560	-13.743100	-4.822573	-2.635965	 4.993658	 6.788941	-5.165319	 0.784187	 3.516649	-5.225038	 0.466231	 0.424329	-0.000002	-3.783157	-0.089647	-3.360157	 4.942302	 0.145039	 89.782070	 78.203900	-180.000000	-59.565140	 38.063390	 57.828130	 6.071307	 6.444770	 16.875760	 32.262030	-16.515400	 8.310424	 6.112037	 4.509576	-0.364401	 4.968462	 1.518543	-9.347576	 5.168945	 0.703820	 2.021906
-0.000470	 0.019823	 1.271067	 0.004073	 0.007444	-0.096259	-1.101107	-1.753489	 178.121000	 1.472820	-11.993000	-0.700211	-6.962858	 71.171980	 0.835714	-2.385833	 28.452760	 0.000004	 0.985457	-2.398304	-177.957700	-1.448635	-12.841900	 0.737607	 6.869416	 71.456610	-0.895992	 2.384658	 28.388730	 0.000004	-1.448999	 2.723136	-0.015827	 1.154227	 3.668507	 0.470793	-3.467325	-4.626468	-0.767497	-91.776240	 78.527450	-180.000000	 55.812400	 38.866640	-61.513290	-10.876950	 0.283051	-1.972293	-32.195710	-14.307160	-4.913883	-2.635965	 4.993658	 6.788941	-5.165319	 0.784187	 3.516649	-5.225038	 0.466231	 0.424329	-0.000002	-3.783157	-0.089647	-3.360157	 4.942302	 0.145039	 89.782100	 78.203900	 180.000000	-58.234570	 37.057350	 59.218720	 5.404025	 6.562159	 17.851350	 32.268890	-17.596460	 7.977865	 6.112037	 4.509576	-0.364401	 4.968462	 1.518543	-9.347576	 5.168945	 0.703820	 2.021906
-0.000465	 0.019852	 1.271057	 0.004065	 0.007449	-0.096259	-0.922606	-1.816382	 178.112400	 1.471392	-12.106740	-0.707053	-6.994456	 71.220990	 0.869389	-2.385833	 28.452760	 0.000004	 0.807086	-2.458184	-177.949400	-1.447227	-12.948220	 0.743925	 6.897117	 71.502570	-0.925385	 2.384658	 28.388730	 0.000004	-2.208416	 2.723126	-0.015825	 1.154233	 3.668517	 0.470780	-3.467326	-4.626470	-0.767493	-91.776150	 78.527470	 180.000000	 55.642300	 38.804420	-61.239470	-11.535870	 0.322599	-2.288134	-32.520190	-15.043360	-5.029687	-2.635965	 4.993658	 6.788941	-5.165319	 0.784187	 3.516649	-5.225038	 0.466231	 0.424329	-0.000002	-3.783157	-0.089647	-3.360157	 4.942302	 0.145039	 89.782130	 78.203850	 180.000000	-56.301070	 35.619710	 62.076410	 4.296185	 6.161588	 18.007390	 31.851820	-19.148050	 7.274808	 6.112037	 4.509576	-0.364401	 4.968462	 1.518543	-9.347576	 5.168945	 0.703820	 2.021906
-0.000459	 0.019888	 1.270920	 0.004073	 0.007444	-0.096259	-0.679747	-1.901122	 178.100600	 1.469447	-12.259670	-0.716262	-7.037124	 71.286720	 0.914832	-2.385833	 28.452760	 0.000004	 0.564333	-2.538996	-177.938200	-1.445308	-13.091400	 0.752443	 6.934470	 71.564320	-0.965032	 2.384658	 28.388730	 0.000004	-3.284759	 2.723136	-0.015827	 1.154228	 3.668507	 0.470793	-3.467326	-4.626467	-0.767497	-91.776200	 78.527470	-180.000000	 55.371870	 38.702530	-60.803350	-12.371610	 0.388558	-2.736352	-33.097290	-16.065460	-5.229971	-2.635965	 4.993658	 6.788941	-5.165319	 0.784187	 3.516649	-5.225038	 0.466231	 0.424329	-0.000002	-3.783157	-0.089647	-3.360157	 4.942302	 0.145039	 89.782140	 78.203850	 179.999900	-52.947240	 33.498400	 65.801900	 2.472849	 5.784106	 18.892470	 30.986690	-21.173030	 6.204101	 6.112037	 4.509576	-0.364401	 4.968462	 1.518543	-9.347576	 5.168945	 0.703820	 2.021906
-0.000454	 0.019914	 1.270712	 0.004073	 0.007444	-0.096259	-0.510451	-1.959691	 178.092400	 1.468092	-12.365140	-0.722619	-7.066669	 71.331950	 0.946279	-2.385833	 28.452760	 0.000004	 0.395106	-2.594866	-177.930400	-1.443971	-13.190180	 0.758327	 6.960299	 71.606850	-0.992444	 2.384658	 28.388730	 0.000004	-4.057603	 2.723136	-0.015827	 1.154227	 3.668513	 0.470798	-3.467320	-4.626473	-0.767502	-91.776180	 78.527470	 180.000000	 55.159000	 38.615280	-60.455020	-12.980610	 0.445245	-3.063119	-33.517180	-16.768320	-5.386196	-2.635965	 4.993658	 6.788941	-5.165319	 0.784187	 3.516649	-5.225038	 0.466231	 0.424329	-0.000002	-3.783157	-0.089647	-3.360157	 4.942302	 0.145039	 89.782170	 78.203870	 179.999900	-50.151600	 31.777720	 68.636810	 1.138653	 5.464935	 19.420080	 30.028860	-22.445550	 5.343940	 6.112037	 4.509576	-0.364401	 4.968462	 1.518543	-9.347576	 5.168945	 0.703820	 2.021906
-0.000448	 0.019936	 1.270390	 0.004073	 0.007444	-0.096259	-0.325848	-2.023232	 178.083500	 1.466605	-12.479410	-0.729512	-7.098749	 71.380930	 0.980428	-2.385833	 28.452760	 0.000004	 0.210601	-2.655604	-177.921800	-1.442505	-13.297420	 0.764720	 6.988428	 71.652980	-1.022271	 2.384658	 28.388730	 0.000004	-4.913789	 2.723136	-0.015827	 1.154228	 3.668507	 0.470798	-3.467325	-4.626466	-0.767500	-91.776170	 78.527470	 180.000000	 54.900350	 38.506520	-60.028030	-13.667620	 0.519051	-3.433364	-33.988390	-17.509280	-5.570701	-2.635965	 4.993658	 6.788941	-5.165319	 0.784187	 3.516649	-5.225038	 0.466231	 0.424329	-0.000002	-3.783157	-0.089647	-3.360157	 4.942302	 0.145039	 89.782130	 78.203870	 180.000000	-46.884480	 29.819260	 72.714920	-0.239107	 4.693491	 18.500670	 28.721490	-23.701710	 4.328234	 6.112037	 4.509576	-0.364401	 4.968462	 1.518543	-9.347576	 5.168945	 0.703820	 2.021906
-0.000444	 0.019935	 1.269990	 0.004070	 0.007449	-0.096264	-0.143203	-2.085516	 178.074600	 1.465142	-12.591170	-0.736260	-7.130208	 71.428700	 1.013920	-2.385833	 28.452760	 0.000004	 0.028081	-2.715163	-177.913300	-1.441061	-13.402340	 0.770977	 7.015998	 71.698020	-1.051491	 2.384658	 28.388730	 0.000004	-5.766310	 2.723130	-0.015823	 1.154229	 3.668507	 0.470786	-3.467321	-4.626466	-0.767494	-91.776210	 78.527450	-180.000000	 54.623830	 38.382870	-59.566930	-14.366490	 0.601551	-3.805610	-34.465190	-18.198720	-5.765541	-2.635965	 4.993658	 6.788941	-5.165319	 0.784187	 3.516649	-5.225038	 0.466231	 0.424329	-0.000002	-3.783157	-0.089647	-3.360157	 4.942302	 0.145039	 89.782140	 78.203870	 180.000000	-43.578400	 27.849230	 77.311730	-1.657378	 3.726912	 16.545610	 27.126620	-24.744990	 3.246146	 6.112037	 4.509576	-0.364401	 4.968462	 1.518543	-9.347576	 5.168945	 0.703820	 2.021906
